<svg width="37" height="41" viewBox="0 0 37 41" fill="none" xmlns="http://www.w3.org/2000/svg">
    <g clipPath="url(#clip0_53_402)">
        <path
            d="M30.0625 3.41675H6.9375C3.11263 3.41675 0 6.86588 0 11.1043V36.7293C0 37.2008 0.345333 37.5835 0.770833 37.5835C1.19633 37.5835 1.54167 37.2008 1.54167 36.7293V32.4584H35.4583V36.7293C35.4583 37.2008 35.8037 37.5835 36.2292 37.5835C36.6547 37.5835 37 37.2008 37 36.7293V11.1043C37 6.86588 33.8874 3.41675 30.0625 3.41675ZM6.9375 5.12508H30.0625C33.0379 5.12508 35.4583 7.80717 35.4583 11.1043V23.9168H32.375V21.3543C32.375 18.0572 29.9546 15.3751 26.9792 15.3751H23.125C21.164 15.3751 19.445 16.5402 18.5 18.2776C17.555 16.5402 15.836 15.3751 13.875 15.3751H10.0208C7.04542 15.3751 4.625 18.0572 4.625 21.3543V23.9168H1.54167V11.1043C1.54167 7.80717 3.96208 5.12508 6.9375 5.12508ZM19.2708 23.9168V21.3543C19.2708 19.0002 20.999 17.0834 23.125 17.0834H26.9792C29.1051 17.0834 30.8333 19.0002 30.8333 21.3543V23.9168H19.2708ZM6.16667 23.9168V21.3543C6.16667 19.0002 7.89642 17.0834 10.0208 17.0834H13.875C15.9994 17.0834 17.7292 19.0002 17.7292 21.3543V23.9168H6.16667ZM1.54167 30.7501V25.6251H35.4583V30.7501H1.54167Z"
            fill="#40C1AC" />
    </g>
    <defs>
        <clipPath id="clip0_53_402">
            <rect width="37" height="41" fill="white" />
        </clipPath>
    </defs>
</svg>