<svg width="610" height="608" viewBox="0 0 610 608" fill="none" xmlns="http://www.w3.org/2000/svg">
<path d="M305 579C246.033 579 203.6 578.971 170.517 575.763C137.812 572.592 116.892 566.5 100.196 556.008C81.1136 544.02 64.9779 527.885 52.9875 508.804C42.5 492.108 36.4042 471.187 33.2375 438.483C30.0292 405.4 30 362.967 30 304C30 245.033 30.0292 202.6 33.2375 169.517C36.4042 136.812 42.5 115.892 52.9875 99.1958C64.9774 80.1131 81.1131 63.9774 100.196 51.9875C116.892 41.5 137.812 35.4042 170.517 32.2375C203.596 29.0292 246.029 29 305 29C363.967 29 406.4 29.0292 439.483 32.2375C472.187 35.4042 493.108 41.5 509.804 51.9875C528.885 63.9779 545.02 80.1136 557.008 99.1958C567.5 115.892 573.592 136.812 576.763 169.517C579.971 202.6 580 245.033 580 304C580 362.967 579.971 405.4 576.763 438.483C573.592 471.187 567.5 492.108 557.008 508.804C545.019 527.885 528.885 544.019 509.804 556.008C493.108 566.5 472.187 572.592 439.483 575.763C406.4 578.971 363.967 579 305 579Z" stroke="black" stroke-width="50"/>
<path d="M305 429C374.036 429 430 373.036 430 304C430 234.964 374.036 179 305 179C235.964 179 180 234.964 180 304C180 373.036 235.964 429 305 429Z" stroke="black" stroke-width="50"/>
<path d="M467.5 179C488.211 179 505 162.211 505 141.5C505 120.789 488.211 104 467.5 104C446.789 104 430 120.789 430 141.5C430 162.211 446.789 179 467.5 179Z" fill="black"/>
</svg>
