<svg width="45" height="37" viewBox="0 0 45 37" fill="none" xmlns="http://www.w3.org/2000/svg">
    <path
        d="M28.9453 10.336V34.3986M15.625 2.60167V14.2032V27.0939M33.5378 7.4501L34.6684 6.69238C38.2004 4.32511 39.9664 3.14149 41.3311 3.86955C42.6953 4.59762 42.6953 6.72358 42.6953 10.9756V23.9128C42.6953 25.2598 42.6953 25.9333 42.392 26.5022C42.0882 27.0711 41.5287 27.446 40.4098 28.196L33.5378 32.8017C31.4512 34.2 30.4078 34.8996 29.2318 34.8996C28.0557 34.8996 27.0124 34.2 24.9258 32.8017L20.0742 29.5501C17.9876 28.1516 16.9443 27.4524 15.7682 27.4524C14.5922 27.4524 13.5488 28.1516 11.4622 29.5501L10.3316 30.3078C6.79952 32.6751 5.0335 33.8587 3.66907 33.1307C2.30469 32.4026 2.30469 30.2766 2.30469 26.0246V13.0875C2.30469 11.7404 2.30469 11.0669 2.60826 10.498C2.91184 9.92913 3.47129 9.55419 4.59028 8.80421L11.4622 4.19856C13.5488 2.80006 14.5922 2.10083 15.7682 2.10083C16.9443 2.10083 17.9876 2.80006 20.0742 4.19856L24.9258 7.4501C27.0124 8.8486 28.0557 9.54783 29.2318 9.54783C30.4078 9.54783 31.4512 8.8486 33.5378 7.4501Z"
        stroke="#40C1AC" stroke-width="4" stroke-linecap="round" stroke-linejoin="round" />
</svg>